<svg width="48" height="45" viewBox="0 0 48 45" fill="none" xmlns="http://www.w3.org/2000/svg">
<path d="M17.7792 7.22887L38.5714 22.8997L13.3178 33.2728L17.7792 7.22887ZM8.66872 41.8494L30.6999 44.8865L12.8404 34.8307L8.66872 41.8494ZM47.9523 25.7238L40.141 4.9752V22.6565L40.1571 22.6809L47.9523 25.7238ZM39.1645 2.7429L18.7406 6.58848L39.1645 21.9832L39.1645 2.7429ZM39.9706 23.7351L34.5358 43.5135L48 26.8695L39.9706 23.7351ZM11.9674 34.1185L0.628539 20.285L7.93597 41.0341L11.9759 34.2213C11.9851 34.2053 11.9892 34.1869 11.9877 34.1685C11.9861 34.1502 11.9791 34.1327 11.9674 34.1185ZM13.8459 34.192L33.044 45L38.8365 23.9263L13.8459 34.192ZM17.8775 5.66841L36.0996 2.23839L16.3898 0L17.7771 5.60383C17.7826 5.62546 17.796 5.64418 17.8147 5.65617C17.8333 5.66817 17.8558 5.67254 17.8775 5.66841ZM16.7 7.35236L0.0589474 17.7086C0.0437239 17.719 0.0307803 17.7324 0.0209208 17.7481C0.0110614 17.7637 0.00449683 17.7812 0.00163503 17.7996C-0.00122678 17.8179 -0.000324676 17.8366 0.00428528 17.8545C0.00889525 17.8725 0.0171146 17.8893 0.0284325 17.9039L12.3234 32.9004L16.7 7.35236ZM16.7928 5.97021L15.4297 0.470942L2.0576 15.229L16.7464 6.08739C16.7654 6.07526 16.7801 6.05741 16.7884 6.03638C16.7967 6.01534 16.7983 5.99219 16.7928 5.97021Z" fill="white"/>
</svg>
