<svg width="38" height="38" viewBox="0 0 38 38" fill="none" xmlns="http://www.w3.org/2000/svg">
<path d="M19 37.4062C21.9513 37.4062 24.3438 36.3429 24.3438 35.0312C24.3438 33.7196 21.9513 32.6562 19 32.6562C16.0487 32.6562 13.6562 33.7196 13.6562 35.0312C13.6562 36.3429 16.0487 37.4062 19 37.4062Z" fill="#6840FF"/>
<path d="M32.6563 14.2501C32.6547 17.3566 31.5945 20.3698 29.6506 22.793C27.7067 25.2161 24.9951 26.9045 21.9628 27.5798C20.0116 28.0152 17.9884 28.0152 16.0372 27.5798C13.5245 27.0213 11.2209 25.7641 9.39177 23.9532C7.56267 22.1422 6.28262 19.8512 5.69919 17.3442C5.11576 14.8372 5.25271 12.2164 6.09426 9.78394C6.9358 7.35144 8.44767 5.2063 10.4556 3.59582C12.4634 1.98535 14.8856 0.975125 17.4428 0.681614C19.9999 0.388103 22.588 0.823259 24.9085 1.93691C27.2291 3.05057 29.1877 4.79737 30.5585 6.97593C31.9293 9.1545 32.6565 11.6761 32.6563 14.2501Z" fill="#6840FF"/>
<path d="M19 25.5312C25.2305 25.5312 30.2812 20.4805 30.2812 14.25C30.2812 8.01954 25.2305 2.96875 19 2.96875C12.7695 2.96875 7.71875 8.01954 7.71875 14.25C7.71875 20.4805 12.7695 25.5312 19 25.5312Z" fill="#E9E3FF"/>
<path d="M18.9999 27.9064V35.0314C18.8349 35.0273 18.6754 34.9711 18.5442 34.8709C18.413 34.7706 18.3169 34.6314 18.2696 34.4733L16.0371 27.5798C17.0096 27.7978 18.0033 27.9074 18.9999 27.9064Z" fill="#C3B3FF"/>
<path d="M21.9628 27.5798L19.7303 34.4733C19.683 34.6314 19.5869 34.7706 19.4557 34.8709C19.3246 34.9711 19.165 35.0273 19 35.0314V27.9064C19.9966 27.9074 20.9903 27.7978 21.9628 27.5798Z" fill="#C3B3FF"/>
<path d="M20.1875 12.1956C19.827 11.9857 19.4172 11.875 19 11.875C18.5828 11.875 18.173 11.9857 17.8125 12.1956V6.53125C17.8148 6.21703 17.9407 5.91633 18.1629 5.69414C18.3851 5.47194 18.6858 5.34608 19 5.34375C19.3147 5.34469 19.6162 5.4701 19.8387 5.6926C20.0611 5.91509 20.1866 6.21659 20.1875 6.53125V12.1956Z" fill="#6840FF"/>
<path d="M24.1419 17.2188C24.0646 17.3549 23.9606 17.4739 23.8361 17.5688C23.7116 17.6637 23.5692 17.7325 23.4175 17.7709C23.2678 17.8132 23.1111 17.8245 22.957 17.8041C22.8028 17.7836 22.6544 17.732 22.5209 17.6522L20.1875 16.3044C20.549 16.0971 20.8492 15.7978 21.0578 15.437C21.2663 15.0763 21.3758 14.6667 21.375 14.25L23.7084 15.5978C23.9799 15.7562 24.1778 16.0154 24.259 16.319C24.3402 16.6226 24.2981 16.946 24.1419 17.2188Z" fill="#6840FF"/>
<path d="M10.3906 15.1409C10.8825 15.1409 11.2812 14.7421 11.2812 14.2502C11.2812 13.7584 10.8825 13.3596 10.3906 13.3596C9.89875 13.3596 9.5 13.7584 9.5 14.2502C9.5 14.7421 9.89875 15.1409 10.3906 15.1409Z" fill="#6840FF"/>
<path d="M27.6094 15.1409C28.1013 15.1409 28.5 14.7421 28.5 14.2502C28.5 13.7584 28.1013 13.3596 27.6094 13.3596C27.1175 13.3596 26.7188 13.7584 26.7188 14.2502C26.7188 14.7421 27.1175 15.1409 27.6094 15.1409Z" fill="#6840FF"/>
<path d="M11.5442 19.4456C12.0361 19.4456 12.4348 19.0468 12.4348 18.5549C12.4348 18.0631 12.0361 17.6643 11.5442 17.6643C11.0523 17.6643 10.6536 18.0631 10.6536 18.5549C10.6536 19.0468 11.0523 19.4456 11.5442 19.4456Z" fill="#6840FF"/>
<path d="M26.4558 10.8362C26.9477 10.8362 27.3464 10.4374 27.3464 9.94556C27.3464 9.45368 26.9477 9.05493 26.4558 9.05493C25.9639 9.05493 25.5652 9.45368 25.5652 9.94556C25.5652 10.4374 25.9639 10.8362 26.4558 10.8362Z" fill="#6840FF"/>
<path d="M14.6953 22.5964C15.1872 22.5964 15.5859 22.1977 15.5859 21.7058C15.5859 21.2139 15.1872 20.8152 14.6953 20.8152C14.2034 20.8152 13.8047 21.2139 13.8047 21.7058C13.8047 22.1977 14.2034 22.5964 14.6953 22.5964Z" fill="#6840FF"/>
<path d="M23.3047 7.68506C23.7966 7.68506 24.1953 7.28631 24.1953 6.79443C24.1953 6.30255 23.7966 5.90381 23.3047 5.90381C22.8128 5.90381 22.4141 6.30255 22.4141 6.79443C22.4141 7.28631 22.8128 7.68506 23.3047 7.68506Z" fill="#6840FF"/>
<path d="M19 23.7502C19.4919 23.7502 19.8906 23.3515 19.8906 22.8596C19.8906 22.3677 19.4919 21.969 19 21.969C18.5081 21.969 18.1094 22.3677 18.1094 22.8596C18.1094 23.3515 18.5081 23.7502 19 23.7502Z" fill="#6840FF"/>
<path d="M23.3047 22.5964C23.7966 22.5964 24.1953 22.1977 24.1953 21.7058C24.1953 21.2139 23.7966 20.8152 23.3047 20.8152C22.8128 20.8152 22.4141 21.2139 22.4141 21.7058C22.4141 22.1977 22.8128 22.5964 23.3047 22.5964Z" fill="#6840FF"/>
<path d="M14.6953 7.68506C15.1872 7.68506 15.5859 7.28631 15.5859 6.79443C15.5859 6.30255 15.1872 5.90381 14.6953 5.90381C14.2034 5.90381 13.8047 6.30255 13.8047 6.79443C13.8047 7.28631 14.2034 7.68506 14.6953 7.68506Z" fill="#6840FF"/>
<path d="M26.4558 19.4456C26.9477 19.4456 27.3464 19.0468 27.3464 18.5549C27.3464 18.0631 26.9477 17.6643 26.4558 17.6643C25.9639 17.6643 25.5652 18.0631 25.5652 18.5549C25.5652 19.0468 25.9639 19.4456 26.4558 19.4456Z" fill="#6840FF"/>
<path d="M11.5442 10.8362C12.0361 10.8362 12.4348 10.4374 12.4348 9.94556C12.4348 9.45368 12.0361 9.05493 11.5442 9.05493C11.0523 9.05493 10.6536 9.45368 10.6536 9.94556C10.6536 10.4374 11.0523 10.8362 11.5442 10.8362Z" fill="#6840FF"/>
<path d="M19 16.6252C20.3117 16.6252 21.375 15.5619 21.375 14.2502C21.375 12.9386 20.3117 11.8752 19 11.8752C17.6883 11.8752 16.625 12.9386 16.625 14.2502C16.625 15.5619 17.6883 16.6252 19 16.6252Z" fill="#6840FF"/>
<path d="M19 15.1406C19.4919 15.1406 19.8906 14.7419 19.8906 14.25C19.8906 13.7581 19.4919 13.3594 19 13.3594C18.5081 13.3594 18.1094 13.7581 18.1094 14.25C18.1094 14.7419 18.5081 15.1406 19 15.1406Z" fill="#C3B3FF"/>
</svg>
